<?xml version="1.0" encoding="utf-8"?>
<!-- Generator: Adobe Illustrator 26.2.1, SVG Export Plug-In . SVG Version: 6.00 Build 0)  -->
<svg version="1.1" id="Layer_1" xmlns="http://www.w3.org/2000/svg" xmlns:xlink="http://www.w3.org/1999/xlink" x="0px" y="0px"
	 viewBox="0 0 231.1 71" style="enable-background:new 0 0 231.1 71;" xml:space="preserve">
<style type="text/css">
	.st0{fill:#E3522C;}
</style>
<path class="st0" d="M93,28l14.5-5c1.8-0.6,1.8-0.6,0.6-2.1c-2.1-2.5-4.2-5.1-6.4-7.6c-0.3-0.3-0.3-0.5,0-0.8
	c1.6-1.8,1.6-1.7,3.7-0.9c5.3,2.1,10.6,4.3,15.9,6.4c0.4,0.2,0.8,0.2,1.2,0c5-1.7,10-3.3,15.1-5c1.5-0.5,3.1-0.5,4.5-0.1
	c1.4,0.4,1.8,1.3,1,2.6c-1,1.4-2.4,2.5-4,3c-11.2,3.7-22.4,7.3-33.6,11c-0.9,0.2-1.8,0.3-2.7,0.2c-3-0.1-6-0.5-8.9-1
	C93.6,28.5,93.2,28.3,93,28z"/>
<path class="st0" d="M118,42.7c-0.5,2-1,4-1.4,6.1c-0.2,0.9-0.4,1.8-0.5,2.6c-0.1,0.5-0.3,0.8-0.9,0.8c-2.2,0-2.2,0-2.8-2.1
	c-1.3-5.5-2.7-11-4-16.5c-0.3-1.2-0.2-1.4,1.1-1.4c2.6,0,2.2-0.4,2.8,2.2s1.3,5.3,1.9,8c0,0.2,0.1,0.4,0.3,0.5
	c0.3-1.7,0.6-3.4,0.9-5s0.6-3.3,0.9-4.9c0-0.5,0.4-0.9,0.9-0.9c0,0,0.1,0,0.1,0c0.6,0,1.2,0,1.8,0s0.9,0.3,1,0.9
	c0.5,3,1,6.1,1.5,9.1c0,0.2,0,0.5,0.3,0.7c0.3-0.2,0.3-0.6,0.4-0.8c0.8-2.7,1.5-5.4,2.1-8.2c0.1-0.3,0.2-0.6,0.3-0.9
	c0-0.1,0.1-0.2,0.1-0.3c0.3-0.6,3.1-0.7,3.4-0.2c0.2,0.4,0.2,0.9,0,1.3c-0.7,2.1-1.2,4.2-1.7,6.3c-0.9,3.7-2,7.3-2.7,11.1
	c0,0.6-0.6,1.1-1.2,1c0,0,0,0-0.1,0c-2,0-2,0-2.5-2c-0.5-2.2-1-4.5-1.5-6.8c-0.1-0.3-0.1-0.5-0.2-0.8L118,42.7z"/>
<path class="st0" d="M165.6,43.2c0,1.5,0,2.9,0,4.3s0,2.7-0.1,4c0,0.5-0.2,0.7-0.7,0.7c-0.7,0-1.4,0-2.1,0c-0.5,0-0.6-0.2-0.6-0.6
	c-0.1-4.2-0.1-8.3,0-12.5c0-1.8,0-3.6,0-5.4c0-1.4,0.1-1.5,1.4-1.5c0.4,0,0.9,0,1.4,0c0.6,0,0.9,0.3,0.8,0.9
	c-0.1,2.1-0.1,4.2-0.2,6.4c0,0.3,0,0.5,0,0.8h0.2c0.5-0.8,1-1.7,1.4-2.5c0.9-1.6,1.8-3.2,2.6-4.9c0.2-0.5,0.6-0.7,1.1-0.7
	c0.8,0,1.6,0,2.4,0c0.5,0,0.6,0.2,0.4,0.7c-0.4,0.9-0.9,1.7-1.4,2.5c-1,1.7-2,3.3-2.9,5c-0.4,0.7-0.4,1.5,0,2.1
	c1.7,2.8,3.2,5.7,4.8,8.6c0.1,0.3,0.4,0.5,0.2,0.9s-0.6,0.2-0.9,0.2c-0.6,0-1.2,0-1.8,0c-0.5,0.1-1.1-0.2-1.3-0.7
	c-1.4-2.4-2.8-4.9-4.2-7.3C166.1,43.8,165.9,43.5,165.6,43.2z"/>
<path class="st0" d="M189.9,42.2v-8.9c0-1,0-1,1-1c0.5,0,1,0,1.5,0c0.8-0.1,1,0.3,1,1c-0.1,2-0.1,4.1-0.2,6.1c0,0.8,0.3,1.1,1,1.1
	c1,0,2,0,2.9,0c0.5,0,0.5-0.3,0.5-0.7c0-2.1,0-4.1,0-6.2c0-1.3,0-1.3,1.3-1.4c2.1-0.1,2.2-0.1,2.2,2.1c0,4.9,0,9.8,0,14.6
	c0,0.7,0.1,1.5,0.1,2.2s-0.3,1.1-1.1,1.1c-0.5,0-1,0-1.5,0c-0.7,0.1-0.8-0.1-0.8-0.8c0-2.2,0-4.5,0.1-6.8c0-0.7-0.2-0.9-0.9-0.9
	c-1,0-1.9,0-2.9,0c-0.6,0-0.7,0.2-0.7,0.7c0,2.1,0,4.2,0,6.3c0,1.2-0.1,1.3-1.3,1.3h-1.3c-0.7,0-1-0.2-1-1
	C189.9,48.2,189.9,45.2,189.9,42.2z"/>
<path class="st0" d="M151.6,44.6c0,2,0,3.9,0,5.8s0.1,1.9-1.8,1.9s-1.6,0.1-1.6-1.6c0-5.8,0-11.5,0-17.2c0-1.1,0.1-1.2,1.2-1.2h3.3
	c2.9-0.1,5.3,2.1,5.5,5.1c0,0,0,0,0,0c0.3,2.2-0.7,4.4-2.5,5.7c-0.4,0.3-0.6,0.8-0.3,1.3c0,0,0.1,0.1,0.1,0.1c1.1,2,2.1,4.1,3.1,6.2
	c0.2,0.3,0.3,0.7,0.4,1c0.2,0.5,0,0.7-0.6,0.7c-0.8,0-1.6,0-2.4,0c-0.5,0.1-0.9-0.2-1-0.7c-0.9-2.2-2-4.3-3-6.5
	C152.2,44.9,151.9,44.6,151.6,44.6z M151.6,38.6c0,0.7,0,1.4,0,2.1s0.3,0.9,1,0.8c1.1-0.2,2-1,2.2-2.1c0.4-1.2,0.1-2.4-0.7-3.3
	c-0.4-0.3-0.9-0.5-1.4-0.6c-0.7-0.1-1,0.2-1,0.9S151.7,37.9,151.6,38.6L151.6,38.6z"/>
<path class="st0" d="M96.9,52.2c-0.5-0.1-1.2,0.2-1.8-0.3c-0.2-0.2-0.5,0.1-0.7,0.2c-3,1.3-6.4,0.2-8-2.7c-0.9-1.9-0.8-4.1,0.2-5.8
	c0.4-0.8,0.9-1.5,1.6-2.2c0.4-0.3,0.5-0.9,0.2-1.3c-0.5-1-0.8-2-1.1-3c-0.6-2.4,0.5-4.2,2.8-4.8c2.1-0.6,4.3,0.7,4.9,2.9
	c0,0.1,0,0.2,0.1,0.2c0.3,1.4-0.1,2.8-1,3.8c-1.3,1.6-1.2,3-0.1,4.6c0.4,0.6,0.7,1.2,1,1.9c0.1,0.1,0.2,0.3,0.3,0.3s0.2-0.2,0.2-0.4
	c0.6-1.7,0.6-1.7,2.3-1.6c0.9,0,1.1,0.3,0.9,1.2c-0.3,1.2-0.7,2.4-1.2,3.5c-0.3,0.6-0.2,1.4,0.2,2C98.7,52.1,98.6,52.2,96.9,52.2z
	 M91.8,49.2c0.5,0,1-0.2,1.3-0.5c0.3-0.5-0.1-0.8-0.3-1.1c-0.5-1.1-1.1-2.1-1.7-3.1s-0.7-1.2-1.4-0.1c-0.7,1-0.9,2.3-0.3,3.4
	C89.9,48.6,90.8,49.2,91.8,49.2L91.8,49.2z M92.4,35.8c0-0.6-0.4-1.1-1-1.1c-0.1,0-0.1,0-0.2,0c-0.7,0-1.2,0.5-1.1,1.1
	c0.1,0.6,0.3,1.2,0.5,1.8c0.2,0.6,0.8,0.7,1.1,0.1C92.1,37.2,92.4,36.6,92.4,35.8L92.4,35.8z"/>
<path class="st0" d="M145.7,42.6c0,1.9-0.4,3.7-1.2,5.4c-1,2.6-3.5,4.2-6.2,4.2c-2.8,0.1-5.3-1.6-6.3-4.1c-1.5-3.5-1.6-7.3-0.5-10.9
	c1-3,3.8-5,7-4.9c3.2,0.2,5.9,2.5,6.6,5.6C145.5,39.4,145.7,41,145.7,42.6z M142.5,42.3c0.1-1.9-0.4-3.8-1.3-5.4
	c-1.5-2.4-4.1-2.5-5.7-0.2c-0.3,0.3-0.5,0.7-0.6,1.1c-1.1,2.8-1.1,6,0,8.8c0.7,1.9,2.8,2.8,4.7,2.1c1-0.4,1.7-1.1,2.1-2.1
	C142.3,45.3,142.5,43.8,142.5,42.3z"/>
<path class="st0" d="M218.7,41.7c0.1,2.1-0.3,4.2-1.1,6.2c-1.3,3.5-5.2,5.3-8.7,4c-1.9-0.7-3.4-2.2-4.1-4.2
	c-1.2-3.2-1.4-6.6-0.5-9.9c0.8-3.3,3.7-5.5,7.1-5.5c3.4,0.2,6.2,2.8,6.8,6.2C218.6,39.5,218.7,40.6,218.7,41.7z M215.6,42.4
	c0.1-1.9-0.3-3.8-1.3-5.5c-1.6-2.4-4.2-2.4-5.8-0.1c-0.3,0.3-0.5,0.7-0.6,1.1c-1.1,2.8-1.1,5.9,0,8.7c0.5,1.5,1.9,2.5,3.5,2.5
	c1.6,0,3-1,3.5-2.5C215.4,45.2,215.6,43.8,215.6,42.4z"/>
<path class="st0" d="M221.4,42.3c0-3,0-6.1,0-9.1c0-0.7,0.2-0.9,0.9-0.9c1.1,0,2.2,0,3.3,0c2.6-0.1,4.8,1.8,5.2,4.3
	c0.3,1.4,0.4,2.8,0.1,4.3c-0.3,2.5-2.5,4.3-5,4.3c-0.2,0-0.5,0-0.7,0c-0.6,0-0.9,0.2-0.8,0.8c0,1.8,0,3.5,0,5.2c0,1.1,0,1.1-1.1,1.1
	c-1.9,0-1.9,0-1.9-1.9L221.4,42.3L221.4,42.3z M224.5,38.9c0,0.7,0,1.5,0,2.2c0,0.4-0.3,1.1,0.3,1.3c0.5,0.2,1.1,0,1.6-0.3
	c0.6-0.3,1-0.8,1.2-1.4c0.4-1.1,0.4-2.2,0.1-3.3c-0.2-1.1-1.1-1.9-2.2-2.1c-0.6-0.1-0.9,0.1-0.9,0.7C224.5,37,224.5,37.9,224.5,38.9
	z"/>
<path class="st0" d="M187.2,47.7c-0.2,2.4-2,4.3-4.4,4.6c-1.5,0.2-3.1,0.1-4.5-0.5c-0.9-0.3-1-0.6-0.9-1.5c0.1-0.5,0.3-1,0.4-1.5
	c0.2-0.6,0.5-0.7,1.1-0.3c0.4,0.3,0.8,0.6,1.3,0.8c1.1,0.5,2.4,0.2,3.3-0.7c0.6-1.2,0.4-2.6-0.5-3.6c-0.6-0.6-1.3-1.1-1.9-1.7
	s-1.4-1.5-2.2-2.2c-1.5-1.7-1.8-4.2-0.6-6.2c1.1-1.9,3.3-3,5.4-2.7c0.5,0.1,1,0.2,1.5,0.4c0.4,0.1,0.7,0.5,0.6,0.9
	c0,0.1,0,0.2-0.1,0.2c-0.2,0.5-0.4,1-0.5,1.6s-0.5,0.8-1.1,0.4c-0.6-0.4-1.3-0.5-2-0.4c-0.7,0.1-1.3,0.7-1.4,1.4
	c-0.2,1.1,0.2,2.3,1.1,3c1.2,1,2.4,2,3.5,3.2C186.6,44.1,187.2,45.9,187.2,47.7z"/>
<path class="st0" d="M74,52.2c-1.6,0-3.3,0-4.9,0c-0.7,0-0.8-0.2-0.8-0.9c0-5.9-0.1-11.9-0.1-17.8c0-0.4,0-0.8,0.2-1.2
	c1-0.2,1.9-0.3,2.9-0.1c0.5,0,0.4,0.5,0.4,0.9c0,1.5,0.1,3,0.1,4.5c0,2.5,0,5-0.1,7.5v1.3c0,0.5,0,0.9,0,1.3c0,1.1,0,1.1,1.1,1
	s2,0,2.9,0c0.6,0,0.8,0.2,0.8,0.8s0,1.2,0,1.8s-0.2,0.8-0.8,0.8S74.6,52.2,74,52.2z"/>
<path class="st0" d="M92.4,27.2c-1.1-1.3-2.1-2.6-3.2-3.8c-0.6-0.6-0.6-1,0-1.5c0.2-0.1,0.4-0.2,0.5-0.4c0.2-0.2,0.5-0.2,0.8-0.1
	c0.5,0.3,1.1,0.6,1.6,0.7c0.1,0.2,0.3,0.3,0.6,0.3l5.5,2.7l-5.3,2L92.4,27.2z"/>
<path class="st0" d="M137,62c-0.3,1.1-0.4,2.3-0.3,3.4c0,0.5,0,0.9-0.8,1c-0.8,0-0.8-0.4-0.8-0.9v-7.1c0-0.4,0-0.8,0.5-0.9
	c0.5-0.1,1,0.1,1.2,0.6c0,0,0,0,0,0c0.5,1.3,1.1,2.6,1.8,3.8c0-1.1,0-2.3,0-3.4c0-0.5-0.1-1,0.7-1s0.9,0.4,0.9,1c0,2.3,0,4.6,0,6.8
	c0,0.4,0.1,0.9-0.5,1c-0.5,0.2-1-0.1-1.2-0.6c0,0,0,0,0,0C138.1,64.5,137.5,63.3,137,62z"/>
<path class="st0" d="M178.2,62c0,1.1,0,2.1,0,3.2c0,0.6,0.2,1.1-0.7,1.1c-0.9,0.1-0.9-0.5-0.8-1.1c0-2.2,0-4.4,0-6.7
	c0-0.5-0.1-1,0.6-1.1c0.8-0.1,1,0.3,1.2,0.9c0.4,1.2,1,2.4,1.7,3.5c0-1.2,0-2.3,0-3.4c0-0.5,0-0.9,0.7-0.9c0.7,0,0.9,0.2,0.9,0.9
	c0,2.3,0,4.7,0,7c0,0.4,0.1,0.9-0.5,1c-0.5,0.1-1-0.2-1.2-0.7c-0.5-1.2-1-2.4-1.6-3.7L178.2,62z"/>
<path class="st0" d="M190.6,62c0.1-1.1,0.1-2.3,0-3.4c0-0.6,0-1.1,0.8-1.1s0.8,0.5,0.8,1c0,2.3,0,4.6,0,6.8c0,0.4,0.2,0.9-0.4,1
	c-0.5,0.1-1-0.1-1.2-0.6c-0.5-1.3-1.2-2.6-1.9-3.8c0,1.1,0,2.3,0,3.4c0,0.5,0.2,1.1-0.7,1.1c-0.9,0-0.8-0.5-0.8-1c0-2.3,0-4.5,0-6.8
	c0-0.4-0.1-0.9,0.5-1.1c0.5-0.1,1.1,0.2,1.2,0.7c0,0,0,0,0,0C189.2,59.6,189.8,60.8,190.6,62z"/>
<path class="st0" d="M126.5,63.4c0,0.6,0,1.3,0,1.9c0,0.6,0,0.9-0.8,0.9c-0.8,0-0.8-0.3-0.8-0.9c0-2.3,0-4.6,0-6.8
	c0-0.7,0.2-1.1,1-1.1c1.2,0,2.4-0.2,3.1,1.1c0.8,1.2,0.5,2.7-0.6,3.6c-0.3,0.3-0.3,0.7,0,1c0.4,0.6,0.7,1.3,1,2
	c0.2,0.4,0.8,1,0.2,1.2c-0.5,0.3-1.2,0.2-1.5-0.3c-0.1-0.1-0.1-0.2-0.2-0.4c-0.3-0.7-0.6-1.5-1-2.1H126.5z M126.5,60
	c0.1,0.5-0.3,1.2,0.5,1.3c0.8,0.1,0.9-0.6,0.9-1.3c0-0.6-0.2-1.1-0.9-1.1C126.3,58.9,126.7,59.7,126.5,60L126.5,60z"/>
<path class="st0" d="M172.1,61.5c0.1,1-0.1,2.1-0.5,3.1c-0.5,1.1-1.5,1.8-2.7,1.8c-1.2,0.1-2.4-0.7-2.8-1.8
	c-0.7-1.5-0.8-3.3-0.2-4.9c0.4-1.3,1.6-2.1,2.9-2.2c1.4,0,2.6,0.9,3,2.2C172,60.3,172.1,60.9,172.1,61.5z M170.7,61.9
	c0-0.6-0.1-1.2-0.3-1.7c-0.3-0.7-0.7-1.3-1.5-1.4c-0.8,0-1.3,0.7-1.6,1.4c-0.2,0.6-0.3,1.1-0.3,1.7c0,1.7,0.8,3,1.9,3
	S170.7,63.8,170.7,61.9L170.7,61.9z"/>
<path class="st0" d="M119.6,66c0,0.1-0.1,0.3-0.5,0.4c-0.4,0.1-0.8-0.1-1-0.4c-0.7-1.2-1.4-1.2-2.1,0c-0.3,0.5-0.8,0.5-1.2,0.4
	c-0.7-0.1-0.3-0.6-0.3-1c0.5-2.3,1-4.7,1.5-7c0.1-0.4,0.2-0.9,0.9-0.8c0.4,0,0.9-0.1,1,0.5C118.5,60.6,119,63.2,119.6,66z
	 M116.9,61.5c-0.1,0.6-0.3,1-0.4,1.5c-0.1,0.5,0,0.6,0.5,0.6c0.5,0,0.4-0.3,0.3-0.6C117.4,62.5,117.2,62,116.9,61.5z"/>
<path class="st0" d="M104.7,61.9c0-1.1,0-2.2,0-3.3c0-0.8,0.3-1.2,1.1-1.1c0.6,0.1,1.3,0.1,1.9,0c0.7,0,0.9,0.3,0.9,0.9
	c0,0.6-0.3,0.7-0.8,0.8c-0.5,0-1-0.3-1.4,0.3c-0.3,0.6,0,1.4,1,1.4c0.5,0,1.1,0,1.1,0.8c0,0.8-0.6,0.8-1.1,0.8s-1.1,0-1.1,0.9
	c0,0.9,0,1.4,1.1,1.3c0.6,0,1.2,0,1.2,0.9c0,0.9-0.6,0.9-1.2,0.9c-3.3,0-2.6,0.1-2.7-2.5C104.7,63.2,104.7,62.5,104.7,61.9z"/>
<path class="st0" d="M198.1,61.9c0-0.7,0-1.5,0-2.2c0-0.7-0.3-1.7,0.3-2c1-0.2,2.1-0.3,3.1-0.2c0.5,0,0.4,0.5,0.4,0.9
	c0,0.3-0.3,0.7-0.8,0.7c-0.5,0-1.4-0.4-1.5,0.8c0,0.7,0.2,1,0.9,1c0.8,0,1.3-0.2,1.3,0.7c0,0.9-0.7,0.8-1.2,0.8
	c-0.6-0.1-1,0.2-0.9,0.9c0.1,0.7-0.2,1.4,0.9,1.4c0.6,0,1.3-0.1,1.3,0.9c0,1-0.8,0.8-1.4,0.8c-3,0-2.4,0.2-2.5-2.4
	C198.1,63.2,198.1,62.6,198.1,61.9z"/>
<path class="st0" d="M156.1,62.1c-0.2-2,1-3.8,2.9-4.4c0.3-0.1,0.6-0.1,0.9-0.2c0.6,0,0.9,0.3,0.9,0.9c0,0.6-0.3,0.7-0.8,0.7
	c-1.7,0-2.4,1-2.4,2.9c0,1.9,0.9,2.9,2.5,3c0.6,0,0.7,0.2,0.7,0.7c0,0.5-0.2,0.8-0.8,0.8C157.7,66.6,156.2,64.9,156.1,62.1z"/>
<path class="st0" d="M208,62.4c0-2.8,1.1-4.4,3.1-4.8c0.6-0.1,1.3-0.4,1.5,0.6c0.2,1-0.5,0.9-1.1,0.9c-0.7,0-1.3,0.4-1.6,1
	c-0.5,1-0.6,2.2-0.2,3.3c0.2,1.1,1.2,1.8,2.3,1.6c0.1,0,0.1,0,0.2,0c0.6-0.1,0.5,0.4,0.5,0.7c0,0.4-0.2,0.7-0.7,0.8
	c-1.9,0.2-3.6-1.2-3.9-3.1C208,63,208,62.7,208,62.4z"/>
<path class="st0" d="M94.4,62c0-1.1,0-2.3,0-3.4c0-0.5,0-1,0.7-1c0.7,0,0.9,0.5,0.9,1.1c0,1.7,0,3.4,0,5.1c0,0.8,0.1,1.2,1,1.1
	c0.5,0,1.1,0,1.1,0.8c0,0.8-0.5,0.8-1,0.8c-2.6,0-2.6,0-2.7-2.4C94.4,63.3,94.4,62.7,94.4,62z"/>
<path class="st0" d="M220.6,57.5c0.5,0,1.1,0,1.7,0c0.3-0.1,0.6,0.2,0.7,0.5c0,0.1,0,0.1,0,0.2c0,0.4,0,0.9-0.6,0.8
	c-1-0.1-1,0.5-0.9,1.2c0,1.7,0,3.5,0,5.3c0,0.5,0,1-0.8,1s-0.8-0.4-0.8-1c0-1.8,0-3.6,0-5.4c0-0.5,0.2-1.1-0.7-1
	c-0.8,0.1-0.8-0.4-0.8-1c0.1-0.6,0.6-0.5,1-0.6H220.6z"/>
<path class="st0" d="M227.3,66.4c-0.4,0-0.7-0.2-0.7-0.6c0,0,0,0,0-0.1c-0.1-0.4,0.2-0.7,0.6-0.8c0,0,0.1,0,0.1,0
	c0.4,0,0.7,0.2,0.7,0.6c0,0,0,0,0,0C227.9,66.1,227.7,66.3,227.3,66.4z"/>
<path class="st0" d="M82.8,65.4c0,0.5-0.1,0.9-0.7,1c-0.3,0.1-0.7-0.2-0.7-0.5c-0.2-0.6,0.3-0.9,0.8-1.1L82.8,65.4z"/>
<path class="st0" d="M144.2,66.4c-0.4-0.1-0.7-0.4-0.6-0.8c0-0.3,0.3-0.6,0.6-0.6c0.4,0,0.7,0.3,0.7,0.6c0,0,0,0,0,0
	C144.9,66.1,144.6,66.4,144.2,66.4z"/>
<path class="st0" d="M16.2,44.6v2c0,1.6,0,3.1,0.1,4.7c0,0.7-0.2,1.1-1,1S13.5,52.6,13,52s-0.1-1.4-0.1-2.2c0-5.5,0-11.1,0-16.6
	c0-0.9,0.1-1.1,1-1.1c1.2,0,2.3,0,3.5,0c3.3-0.1,5.2,2.4,5.5,5.1c0.2,2.1-0.6,4.1-2.2,5.4c-0.9,0.8-0.9,0.8-0.4,1.8l2.9,5.8
	c0.2,0.4,0.4,0.8,0.5,1.2c0.2,0.4,0,0.7-0.5,0.7c-0.9,0-1.8,0-2.7,0c-0.5,0-0.6-0.4-0.8-0.7c-0.9-2.2-2-4.4-3.1-6.5
	C16.6,44.9,16.6,44.7,16.2,44.6z M19.5,38.3c0.1-1.4-0.8-2.6-2.2-2.7c0,0,0,0,0,0c-0.8-0.1-1,0.1-1.1,0.9c0,1.5,0,2.9,0,4.4
	c0,0.7,0.3,0.8,0.9,0.7C18.6,41.3,19.5,40.1,19.5,38.3z"/>
<path class="st0" d="M36.6,52.1c-1.6,0-1.3,0.2-1.7-1.3c-0.1-0.3-0.2-0.6-0.3-0.9c-0.1-0.4-0.4-0.6-0.8-0.6H31
	c-0.5,0-0.7,0.2-0.8,0.7c-0.2,2-0.3,2-2.2,2c-1.6,0-1.6,0-1.2-1.5c1.2-5.7,2.5-11.3,3.7-17c0.3-1.3,0.3-1.3,1.7-1.3c2,0,2,0,2.5,2
	c1.1,5.2,2.2,10.4,3.3,15.6c0.1,0.4,0.2,0.8,0.3,1.2c0.2,0.9,0.1,1-0.8,1.1C37.2,52.1,36.9,52.1,36.6,52.1z M32.3,40.5
	c-0.3,1.4-0.6,2.6-0.9,3.9c-0.4,1.8-0.4,1.9,1.5,1.7c0.6-0.1,0.7-0.3,0.6-0.8c-0.3-1.1-0.5-2.2-0.8-3.3
	C32.8,41.4,32.6,40.9,32.3,40.5z"/>
<path class="st0" d="M47.6,44.9c0.3-0.7,0.5-1.4,0.7-2.2c0.7-3,1.3-6.1,2.1-9.1c0.4-1.3,0.4-1.4,1.8-1.4h1c1,0,1.2,0.2,0.9,1.2
	c-0.7,2.7-1.4,5.5-2.1,8.2c-0.8,3.2-1.6,6.3-2.4,9.5c-0.2,0.8-0.5,1.2-1.4,1.2c-2.4-0.1-2,0.3-2.6-2c-1.6-5.6-3-11.2-4.3-16.9
	c-0.3-1.1-0.2-1.2,0.9-1.2c2.4,0,2.4,0,3,2.4c0.7,3.2,1.5,6.4,2.2,9.6C47.3,44.5,47.4,44.7,47.6,44.9z"/>
<path class="st0" d="M57,42.3c0-3,0-6.1,0-9.1c0-0.7,0.2-1,1-1c2.3,0,4.6,0,6.8-0.1c0.3-0.1,0.6,0.2,0.7,0.5c0,0.1,0,0.1,0,0.2
	c0,0.7,0,1.4,0,2.1c0,0.5-0.2,0.6-0.7,0.7l-3.7,0.1c-0.4,0-0.6,0.2-0.6,0.5c-0.1,1-0.2,1.9-0.1,2.9c0.1,0.5,0.3,0.7,0.8,0.7
	c1,0.1,2,0.1,3,0c0.7-0.1,1.1,0.2,1.1,1c0.1,2.8-0.1,2.4-2.2,2.4c-0.6,0-1.3,0-1.9,0s-0.7,0.2-0.7,0.7c0,1.3,0,2.6-0.1,3.9
	c0,0.4,0.2,0.6,0.6,0.6c1.1,0,2.1,0,3.2,0c0.9,0,1.3,0.4,1.3,1.2c0,0.3,0,0.6,0,0.9c0,1.4-0.2,1.7-1.5,1.7c-1.9,0-3.8,0-5.7,0
	c-1.2,0-1.2-0.1-1.3-1.3C56.7,47.9,56.9,45.1,57,42.3z"/>
<path class="st0" d="M3.5,45.6c0-3,0-6.1,0-9.1c0-0.7-0.2-1.1-1-1c-0.5,0-1.1,0-1.7,0S0.1,35.2,0,34.7c0-0.1,0-0.2,0-0.2
	c0-2.7,0-2.2,2.1-2.2c2.4,0,4.8,0,7.2,0c0.7,0,0.9,0.2,0.9,0.9c-0.1,2.7,0.4,2.3-2.3,2.3c-1.2,0-1.2,0-1.2,1.2c0,4.8,0,9.6,0,14.4
	c0,1.2,0,1.2-1.2,1.2c-2,0-2,0-2.1-2c0-0.8,0-1.5,0-2.3L3.5,45.6L3.5,45.6z"/>
<path class="st0" d="M67.6,66.3c-2.6,0.7-1.9-2.1-3.3-2.9c0,0.8,0,1.5,0,2.2s-0.2,0.8-0.8,0.8s-0.8-0.3-0.8-0.8c0-2.4,0-4.8,0-7.2
	c0-0.5,0.2-0.9,0.8-0.9c1.2,0,2.5-0.3,3.3,1.1c0.8,1.1,0.6,2.7-0.5,3.6c-0.5,0.4-0.2,0.8,0,1.2C66.8,64.3,67.2,65.3,67.6,66.3z
	 M64.2,60.3c0.2,0.4-0.4,1.2,0.5,1.2c0.9,0.1,0.9-0.6,0.9-1.2c0-0.6-0.2-1.2-0.9-1.2C63.9,59.1,64.4,59.9,64.2,60.3L64.2,60.3z"/>
<path class="st0" d="M58.1,61.7c0,1-0.2,1.9-0.5,2.8c-0.4,1.2-1.6,2-2.9,1.9c-1.2,0-2.3-0.8-2.7-1.9c-0.6-1.5-0.7-3.1-0.2-4.7
	c0.4-1.3,1.6-2.3,3-2.3c1.4,0.1,2.6,1,3,2.4C58,60.5,58,61.1,58.1,61.7z M53,61.9c0,2,0.7,3.1,1.9,3.1c1.2,0,1.9-1.3,1.7-3.2
	c-0.2-1.9-0.8-2.9-1.8-2.9C53.7,58.8,53,60.1,53,61.9L53,61.9z"/>
<path class="st0" d="M23.7,63.6c-0.9,1-0.4,3.4-2.9,2.6c0.5-1.1,1-2.1,1.5-3.1c0.5-0.8,0.5-1.8,0-2.7c-0.4-0.6-0.7-1.2-0.9-1.8
	c-0.1-0.3-0.7-0.8-0.1-1c0.5-0.3,1.2-0.2,1.5,0.3c0,0,0,0,0,0c0.3,0.5,0.5,1.1,0.9,1.9c0.4-0.8,0.6-1.3,0.9-1.9
	c0.3-0.5,0.9-0.7,1.4-0.4c0,0,0,0,0,0c0.7,0.3,0.2,0.8,0,1.1c-1.7,2.3-1.2,4.5,0.2,6.7c0.2,0.3,0.7,0.8,0.1,1
	c-0.5,0.3-1.1,0.2-1.5-0.3c0,0,0-0.1-0.1-0.1C24.5,65,24.2,64.3,23.7,63.6z"/>
<path class="st0" d="M11.4,62.1c0-1.1,0-2.2,0-3.3c0-0.8,0.2-1.4,1.2-1.3c0.5,0,1,0,1.5,0c0.6,0,1.2-0.1,1.2,0.8
	c0,0.9-0.6,0.7-1.1,0.8c-0.5,0-1.1-0.1-1.2,0.7s0.3,1.1,1.1,1c0.5,0,1.1,0,1.1,0.8c0,0.8-0.6,0.8-1.1,0.8c-0.5-0.1-1.1,0.1-1.1,1
	c0,0.9,0,1.3,1,1.2c0.7,0,1.3,0,1.2,1s-0.8,0.8-1.3,0.8c-2.9,0-2.6,0.2-2.6-2.5V62.1z"/>
<path class="st0" d="M73.6,61.9c0-1.1,0-2.3,0-3.4c0-0.7,0.2-1,1-1c0.7,0,1.4,0,2,0c0.7,0,0.8,0.1,0.8,0.7c0,0.6-0.2,0.9-0.9,0.9
	s-1.1-0.3-1.3,0.4S75,61,76.2,60.9c0.5,0,1.1-0.2,1.1,0.7c0,0.9-0.6,0.9-1.2,0.8s-1,0.3-1,1c0,0.8,0,1.4,1,1.3
	c1-0.1,1.4,0.1,1.2,1.1c0,0,0,0.1,0,0.1c-0.8,1-1.9,0.3-2.9,0.5c-0.6,0-0.9-0.2-0.9-0.9C73.6,64.2,73.6,63.1,73.6,61.9z"/>
<path class="st0" d="M31.8,61.9c0-1,0-2.1,0-3.1s0.4-1.4,1.4-1.3c1.7,0,3,1.3,3,3c0,0.5-0.1,1.1-0.4,1.5c-0.3,0.5-0.7,1-1.2,1
	c-1.5,0-1.5,1-1.4,2c0,0.2,0,0.4,0,0.7c0,0.5-0.3,0.7-0.8,0.7c-0.5,0-0.6-0.3-0.6-0.7L31.8,61.9L31.8,61.9z M33.2,60.5
	c0.3,0.5-0.4,1.4,0.5,1.4c0.9,0.1,1-0.8,1-1.5s-0.2-1.5-1-1.4C32.9,59.1,33.5,60,33.2,60.5z"/>
<path class="st0" d="M42.5,62.1c0-1.2,0-2.4,0-3.7c0-0.5,0.2-0.8,0.8-0.8c0.6,0,0.9,0.2,0.9,0.9c0,1.7,0,3.6,0,5.4
	c0,0.8,0.2,1.1,1,1s1.2,0,1.2,0.9s-0.8,0.7-1.3,0.7c-2.5,0-2.5,0-2.5-2.4L42.5,62.1L42.5,62.1z"/>
</svg>
