<svg id="Layer_1" data-name="Layer 1" xmlns="http://www.w3.org/2000/svg" viewBox="0 0 231.13 70.96"><defs><style>.cls-1{fill:#e3522c;}</style></defs><path class="cls-1" d="M93,17l14.47-5c1.85-.64,1.84-.62.58-2.13-2.13-2.53-4.23-5.09-6.37-7.62-.29-.34-.28-.51,0-.84,1.57-1.75,1.55-1.73,3.72-.86q8,3.21,15.91,6.36a1.65,1.65,0,0,0,1.22,0c5-1.69,10-3.34,15.08-5a7.81,7.81,0,0,1,4.54-.1c1.44.38,1.79,1.34,1,2.56a7.55,7.55,0,0,1-4,3q-16.78,5.52-33.57,11a7.09,7.09,0,0,1-2.67.21A56.6,56.6,0,0,1,94,17.55,1.37,1.37,0,0,1,93,17Z"/><path class="cls-1" d="M118,42.73c-.48,2-1,4.05-1.43,6.09-.2.87-.37,1.76-.53,2.64-.1.51-.3.77-.89.78-2.23,0-2.23,0-2.75-2.13q-2-8.25-4-16.51c-.3-1.21-.16-1.4,1.08-1.39,2.64,0,2.15-.39,2.8,2.23s1.28,5.35,1.92,8a.79.79,0,0,0,.32.55c.32-1.7.64-3.36.94-5s.63-3.28.89-4.92a.87.87,0,0,1,1-.85c.58,0,1.17,0,1.75,0s.89.29,1,.89c.49,3,1,6.06,1.53,9.09,0,.25,0,.53.28.7.32-.21.3-.56.38-.85.75-2.7,1.48-5.41,2.06-8.16.07-.31.17-.61.27-.91a1.32,1.32,0,0,1,.1-.3c.31-.56,3.07-.71,3.4-.16a1.58,1.58,0,0,1,0,1.31c-.66,2.06-1.2,4.15-1.72,6.26-.91,3.7-2,7.35-2.69,11.1a1.09,1.09,0,0,1-1.24,1c-2,0-2,0-2.47-1.95-.51-2.25-1-4.5-1.49-6.75-.06-.27-.14-.54-.21-.81Z"/><path class="cls-1" d="M165.59,43.22c0,1.49,0,2.88,0,4.27s0,2.7-.06,4c0,.49-.23.73-.72.72-.72,0-1.43,0-2.15,0-.46,0-.6-.21-.61-.62-.13-4.16-.11-8.32,0-12.48,0-1.8,0-3.6,0-5.4,0-1.43.07-1.5,1.45-1.5.45,0,.9,0,1.35,0,.62,0,.85.26.83.86q-.09,3.18-.16,6.36c0,.27,0,.55,0,.83l.19,0c.48-.83,1-1.67,1.42-2.51.89-1.62,1.78-3.24,2.65-4.88a1.11,1.11,0,0,1,1.12-.71c.79,0,1.59,0,2.38,0,.54,0,.64.2.45.68a19.65,19.65,0,0,1-1.37,2.51c-1,1.66-2,3.29-2.89,5a2,2,0,0,0,0,2.14c1.66,2.84,3.24,5.71,4.84,8.58.14.26.43.54.22.86s-.56.22-.88.21a12.41,12.41,0,0,0-1.83,0,1.19,1.19,0,0,1-1.29-.69c-1.39-2.43-2.8-4.86-4.2-7.29A3.44,3.44,0,0,0,165.59,43.22Z"/><path class="cls-1" d="M189.87,42.15v-8.9c0-1,0-1,1-1a12.71,12.71,0,0,0,1.51,0c.81-.09,1,.29,1,1-.07,2-.06,4.08-.16,6.11,0,.82.27,1.1,1,1.1,1,0,2,0,2.94,0,.54,0,.52-.31.51-.68,0-2.06,0-4.13,0-6.2,0-1.28,0-1.34,1.33-1.38,2.14-.06,2.18-.06,2.19,2.07,0,4.88,0,9.75,0,14.63,0,.74.07,1.48.08,2.22s-.27,1.14-1.15,1.1a8.36,8.36,0,0,0-1.5,0c-.66.1-.83-.13-.82-.76,0-2.25,0-4.5.05-6.75,0-.72-.21-.93-.9-.89-1,0-1.91,0-2.87,0-.55,0-.74.19-.73.74,0,2.12,0,4.24,0,6.35,0,1.23-.07,1.29-1.31,1.29h-1.27c-.66,0-1-.25-1-1C189.9,48.19,189.87,45.17,189.87,42.15Z"/><path class="cls-1" d="M151.65,44.57c0,2,0,3.92,0,5.81s.11,1.88-1.77,1.88-1.55.09-1.56-1.57c0-5.75,0-11.5,0-17.25,0-1.12.09-1.2,1.24-1.21h3.33a5.26,5.26,0,0,1,5.46,5.06A6.13,6.13,0,0,1,155.88,43a.93.93,0,0,0-.26,1.39c1.07,2,2.08,4.1,3.11,6.16.17.33.31.67.45,1,.19.51,0,.74-.55.73-.79,0-1.59,0-2.38,0a.9.9,0,0,1-1-.69c-.91-2.21-2-4.34-3-6.47A.89.89,0,0,0,151.65,44.57Zm0-6c0,.71,0,1.43,0,2.14s.33.87,1,.76a2.57,2.57,0,0,0,2.19-2.12,3.15,3.15,0,0,0-.74-3.31,2.37,2.37,0,0,0-1.37-.57c-.66-.07-1,.19-1,.88S151.68,37.88,151.67,38.62Z"/><path class="cls-1" d="M96.93,52.16c-.54-.08-1.19.18-1.75-.33-.21-.2-.49.08-.72.18a6.26,6.26,0,0,1-8-2.66,6,6,0,0,1,.25-5.85,9.18,9.18,0,0,1,1.56-2.19A1,1,0,0,0,88.52,40a19.16,19.16,0,0,1-1.14-3c-.58-2.43.49-4.25,2.79-4.77a4,4,0,0,1,4.93,3.11,4.5,4.5,0,0,1-1,3.81c-1.33,1.59-1.19,3-.12,4.59a18.93,18.93,0,0,1,1,1.9c.07.14.17.31.35.29s.18-.23.23-.37c.59-1.65.59-1.65,2.32-1.57.89.05,1.07.28.91,1.2A16.31,16.31,0,0,1,97.6,48.7a2,2,0,0,0,.17,2C98.65,52.13,98.61,52.16,96.93,52.16Zm-5.13-3a1.65,1.65,0,0,0,1.31-.53c.34-.45-.07-.8-.26-1.14-.54-1.06-1.11-2.1-1.69-3.13s-.65-1.15-1.45-.09a3.15,3.15,0,0,0-.3,3.37A2.74,2.74,0,0,0,91.8,49.2Zm.62-13.32a1.07,1.07,0,0,0-1.22-1.09c-.73,0-1.19.47-1.09,1.14a9.88,9.88,0,0,0,.48,1.75c.23.6.75.65,1.14.13A3.71,3.71,0,0,0,92.42,35.88Z"/><path class="cls-1" d="M145.66,42.57A14,14,0,0,1,144.49,48a6.58,6.58,0,0,1-6.22,4.19A6.44,6.44,0,0,1,132,48.05a15.51,15.51,0,0,1-.47-10.88,7.12,7.12,0,0,1,7-4.94,7.4,7.4,0,0,1,6.64,5.59A18.34,18.34,0,0,1,145.66,42.57Zm-3.17-.31a10,10,0,0,0-1.3-5.41c-1.54-2.37-4.1-2.45-5.74-.18a4.44,4.44,0,0,0-.62,1.1,12.28,12.28,0,0,0,0,8.85,3.67,3.67,0,0,0,6.84.06A10.62,10.62,0,0,0,142.49,42.26Z"/><path class="cls-1" d="M218.72,41.7a15.51,15.51,0,0,1-1.07,6.15,6.74,6.74,0,0,1-12.71-.19,16.18,16.18,0,0,1-.47-9.92,7.24,7.24,0,0,1,7.08-5.52,7.48,7.48,0,0,1,6.83,6.18A15.54,15.54,0,0,1,218.72,41.7Zm-3.17.66a10,10,0,0,0-1.29-5.52c-1.56-2.38-4.16-2.43-5.78-.11a4.87,4.87,0,0,0-.61,1.12,12.14,12.14,0,0,0,0,8.7A3.57,3.57,0,0,0,211.35,49a3.64,3.64,0,0,0,3.46-2.48A10,10,0,0,0,215.55,42.36Z"/><path class="cls-1" d="M221.41,42.28c0-3,0-6.09,0-9.14,0-.68.24-.94.93-.92,1.11.05,2.23,0,3.34,0a5.12,5.12,0,0,1,5.17,4.29,10.36,10.36,0,0,1,.13,4.26,5,5,0,0,1-5,4.31,5.61,5.61,0,0,1-.71,0c-.61,0-.86.19-.84.82,0,1.75,0,3.5,0,5.24,0,1.08,0,1.08-1.12,1.08-1.91,0-1.91,0-1.91-1.87V42.28Zm3.06-3.4c0,.74,0,1.48,0,2.22,0,.44-.27,1.06.26,1.3a1.77,1.77,0,0,0,1.58-.31,2.49,2.49,0,0,0,1.18-1.43,5.33,5.33,0,0,0,.09-3.28,2.7,2.7,0,0,0-2.24-2.09c-.59-.1-.91.06-.89.73C224.49,37,224.47,37.92,224.47,38.88Z"/><path class="cls-1" d="M187.17,47.67a4.94,4.94,0,0,1-4.4,4.59,9.46,9.46,0,0,1-4.54-.45c-.87-.28-1-.62-.87-1.5a13.77,13.77,0,0,1,.43-1.52c.18-.62.53-.72,1.06-.35a6.33,6.33,0,0,0,1.29.78,2.84,2.84,0,0,0,3.26-.73,3.18,3.18,0,0,0-.48-3.61c-.59-.6-1.28-1.1-1.89-1.69s-1.45-1.47-2.18-2.2a5.2,5.2,0,0,1-.58-6.19,5.31,5.31,0,0,1,5.44-2.65,11.54,11.54,0,0,1,1.54.38.76.76,0,0,1,.55,1.11c-.19.52-.39,1-.54,1.57s-.53.75-1.07.43a2.92,2.92,0,0,0-2-.42,1.51,1.51,0,0,0-1.39,1.4,3.17,3.17,0,0,0,1.1,3,30.35,30.35,0,0,1,3.46,3.15A6.83,6.83,0,0,1,187.17,47.67Z"/><path class="cls-1" d="M74,52.19c-1.64,0-3.28,0-4.92,0-.68,0-.85-.22-.85-.86,0-5.94-.07-11.87-.12-17.81a2.47,2.47,0,0,1,.16-1.17,8.08,8.08,0,0,1,2.9-.12c.47,0,.43.53.44.89,0,1.5.09,3,.09,4.51,0,2.49,0,5-.06,7.46V46.4c0,.45,0,.9,0,1.35,0,1.1,0,1.11,1.11,1s2,0,2.93,0c.6,0,.82.23.82.79s0,1.21,0,1.82-.21.78-.75.78S74.6,52.18,74,52.19Z"/><path class="cls-1" d="M92.36,16.17c-1.07-1.26-2.1-2.57-3.23-3.77-.58-.61-.64-1,0-1.5a1,1,0,0,0,.48-.44.63.63,0,0,1,.78-.05,6.43,6.43,0,0,0,1.63.72.85.85,0,0,0,.56.31l5.53,2.74-5.34,2Z"/><path class="cls-1" d="M127.77,68.39a5.14,5.14,0,0,0-.16,2c0,.32,0,.55-.46.56s-.46-.21-.45-.54V66.26c0-.23,0-.49.3-.54a.55.55,0,0,1,.68.38,11.2,11.2,0,0,0,1.08,2.2c0-.67,0-1.33,0-2,0-.31-.06-.58.39-.6s.54.22.54.59c0,1.35,0,2.7,0,4,0,.23.06.51-.28.56a.54.54,0,0,1-.69-.36C128.41,69.81,128.08,69.1,127.77,68.39Z"/><path class="cls-1" d="M166.77,68.42c0,.62,0,1.24,0,1.85,0,.33.09.63-.42.66s-.5-.32-.49-.67c0-1.3,0-2.59,0-3.89,0-.28-.08-.6.36-.66s.56.16.68.5a10.24,10.24,0,0,0,1,2.07c0-.68,0-1.37,0-2,0-.29,0-.52.41-.52s.51.13.51.51c0,1.37,0,2.75,0,4.12,0,.22.08.51-.27.57a.57.57,0,0,1-.69-.38c-.29-.72-.61-1.43-.93-2.14Z"/><path class="cls-1" d="M176.38,68.29a8.21,8.21,0,0,0,0-2c0-.33,0-.63.48-.62s.44.27.44.59c0,1.35,0,2.7,0,4,0,.21.11.5-.25.57a.58.58,0,0,1-.7-.37,12.66,12.66,0,0,0-1.12-2.24c0,.66,0,1.32,0,2,0,.3.12.65-.42.66s-.49-.27-.49-.61c0-1.33,0-2.65,0-4,0-.25-.06-.55.32-.62a.59.59,0,0,1,.72.44A9.85,9.85,0,0,0,176.38,68.29Z"/><path class="cls-1" d="M119.18,69.26c0,.37,0,.74,0,1.11s0,.54-.44.55-.47-.2-.47-.54c0-1.35,0-2.7,0-4,0-.43.11-.65.58-.62.68,0,1.42-.1,1.82.65a1.56,1.56,0,0,1-.34,2.08.41.41,0,0,0,0,.57,12,12,0,0,1,.56,1.14c.11.23.45.57.13.71a.65.65,0,0,1-1-.4,9,9,0,0,0-.61-1.25Zm0-2c.06.27-.2.72.27.76s.53-.37.54-.74-.14-.67-.52-.67S119.31,67.07,119.2,67.29Z"/><path class="cls-1" d="M160.31,68.05a3.84,3.84,0,0,1-.29,1.79,1.74,1.74,0,0,1-1.56,1.06,1.65,1.65,0,0,1-1.64-1.05,3.81,3.81,0,0,1-.14-2.87,1.82,1.82,0,0,1,1.68-1.26A1.89,1.89,0,0,1,160.13,67,2.8,2.8,0,0,1,160.31,68.05Zm-.82.21a2.09,2.09,0,0,0-.18-1c-.15-.41-.4-.78-.89-.79s-.78.41-.93.84a3.46,3.46,0,0,0-.18,1c0,1,.47,1.76,1.13,1.73S159.48,69.38,159.49,68.26Z"/><path class="cls-1" d="M112.74,70.63c0,.06-.07.19-.3.23a.47.47,0,0,1-.58-.25c-.4-.69-.84-.68-1.24,0-.18.31-.46.27-.69.24-.4-.06-.19-.36-.15-.56.29-1.37.59-2.74.89-4.11.06-.26.13-.52.5-.48.22,0,.5-.07.57.27C112.06,67.48,112.38,69,112.74,70.63ZM111.18,68c-.08.33-.15.61-.21.9s0,.35.29.34.24-.16.2-.33A1.87,1.87,0,0,0,111.18,68Z"/><path class="cls-1" d="M101.89,68.25c0-.63,0-1.27,0-1.9,0-.47.15-.68.64-.65a5.89,5.89,0,0,0,1.11,0c.4,0,.5.17.51.51s-.18.43-.49.44-.6-.16-.79.18,0,.8.6.83c.32,0,.65,0,.64.46s-.34.47-.66.45-.64,0-.62.53,0,.83.62.78c.36,0,.7,0,.7.51s-.35.5-.7.5c-1.9,0-1.53.08-1.56-1.49C101.88,69,101.89,68.62,101.89,68.25Z"/><path class="cls-1" d="M182.89,68.23c0-.42,0-.85,0-1.27s-.2-1,.2-1.16a5.12,5.12,0,0,1,1.8-.1c.3,0,.23.3.24.5s-.17.38-.45.4-.84-.24-.85.47c0,.39.09.58.53.56s.74-.12.75.43-.39.49-.73.46-.59.1-.55.53-.11.82.54.79c.35,0,.78-.07.77.53s-.46.48-.8.48c-1.74,0-1.42.1-1.45-1.42C182.88,69,182.89,68.63,182.89,68.23Z"/><path class="cls-1" d="M148.19,68.35a2.42,2.42,0,0,1,1.69-2.59,3.2,3.2,0,0,1,.54-.09c.37,0,.52.15.53.52s-.16.4-.48.42c-1,0-1.42.61-1.43,1.7s.51,1.72,1.49,1.73c.34,0,.41.1.42.39s-.14.45-.47.47C149.13,71,148.2,70,148.19,68.35Z"/><path class="cls-1" d="M190.69,68.53c0-1.64.65-2.58,1.84-2.81.33-.07.76-.24.88.34s-.27.54-.66.54a1,1,0,0,0-.95.6,2.41,2.41,0,0,0-.13,1.93,1.16,1.16,0,0,0,1.44.91c.33-.05.29.21.3.42s-.13.41-.42.44a2.11,2.11,0,0,1-2.26-1.79A3,3,0,0,1,190.69,68.53Z"/><path class="cls-1" d="M94.19,68.28c0-.66,0-1.33,0-2,0-.31,0-.58.43-.59s.52.27.52.62c0,1,0,2,0,3,0,.45.06.72.6.64.32,0,.62,0,.63.46s-.28.46-.61.47c-1.5,0-1.51,0-1.55-1.43C94.18,69.07,94.19,68.68,94.19,68.28Z"/><path class="cls-1" d="M200.27,65.71c.32,0,.64,0,1,0a.34.34,0,0,1,.39.39c0,.25,0,.52-.36.49-.57-.07-.56.28-.55.68,0,1,0,2.06,0,3.09,0,.31,0,.56-.45.56s-.44-.25-.44-.56c0-1.06,0-2.11,0-3.17,0-.28.09-.62-.39-.59s-.49-.21-.46-.56.35-.31.59-.33Z"/><path class="cls-1" d="M207.6,70.9a.39.39,0,0,1-.43-.38.4.4,0,0,1,.41-.47.39.39,0,0,1,.43.37C208,70.69,207.85,70.84,207.6,70.9Z"/><path class="cls-1" d="M82,70.31c0,.29-.08.53-.4.58a.38.38,0,0,1-.43-.28c-.11-.37.16-.51.45-.62Z"/><path class="cls-1" d="M135.62,70.9a.43.43,0,0,1,0-.85.39.39,0,0,1,.4.4A.45.45,0,0,1,135.62,70.9Z"/><path class="cls-1" d="M16.17,44.59v1.95c0,1.56,0,3.13.06,4.69,0,.73-.2,1.12-1,1s-1.72.33-2.22-.2-.13-1.42-.13-2.16c0-5.54,0-11.07,0-16.61,0-.93.14-1.06,1-1.06,1.17,0,2.34,0,3.5,0,3.34-.14,5.2,2.4,5.47,5.12a6,6,0,0,1-2.24,5.41c-.91.79-.9.81-.37,1.85l2.92,5.82a12.1,12.1,0,0,1,.5,1.17c.16.41,0,.67-.45.66-.9,0-1.81,0-2.71,0-.54,0-.64-.37-.79-.73-.93-2.22-2-4.38-3.07-6.53C16.64,44.87,16.59,44.71,16.17,44.59Zm3.32-6.33a2.48,2.48,0,0,0-2.21-2.73c-.76-.08-1.05.14-1.06.9,0,1.46,0,2.91,0,4.37,0,.67.32.82.9.73C18.61,41.3,19.51,40.06,19.49,38.26Z"/><path class="cls-1" d="M36.58,52.06c-1.6,0-1.27.21-1.74-1.3-.1-.31-.2-.61-.29-.91a.69.69,0,0,0-.75-.56H31c-.5,0-.73.2-.8.74-.24,2-.26,2-2.22,2-1.56,0-1.59,0-1.25-1.49q1.85-8.49,3.73-17c.3-1.35.3-1.35,1.69-1.35,2,0,2,0,2.46,2Q36.27,42,37.93,49.75c.09.42.23.82.33,1.23.22.87.11,1-.8,1.07C37.17,52.07,36.88,52.06,36.58,52.06ZM32.35,40.5c-.31,1.39-.58,2.64-.86,3.88-.42,1.85-.38,1.87,1.49,1.65.61-.07.7-.31.59-.81-.26-1.11-.5-2.21-.75-3.32A3.13,3.13,0,0,0,32.35,40.5Z"/><path class="cls-1" d="M47.57,44.94a8,8,0,0,0,.65-2.2c.72-3,1.29-6.12,2.1-9.13.36-1.34.41-1.38,1.78-1.38h1c1,0,1.15.22.9,1.21-.7,2.74-1.42,5.48-2.12,8.23-.81,3.15-1.64,6.3-2.41,9.46-.2.82-.51,1.19-1.44,1.15-2.42-.1-2,.29-2.63-2-1.59-5.57-3-11.21-4.27-16.85-.26-1.11-.18-1.2.93-1.21,2.44,0,2.43,0,3,2.36.73,3.2,1.47,6.4,2.2,9.6A1.39,1.39,0,0,0,47.57,44.94Z"/><path class="cls-1" d="M57,42.33c0-3,0-6.09,0-9.14,0-.69.23-1,.95-1q3.42,0,6.84-.08a.59.59,0,0,1,.69.66c0,.69,0,1.38,0,2.07,0,.5-.2.64-.66.65l-3.66.06c-.38,0-.61.15-.62.54A20.46,20.46,0,0,0,60.4,39c.06.54.27.68.75.65a27.67,27.67,0,0,0,3,0c.72-.12,1.08.19,1.1.95C65.36,43.43,65.16,43,63,43c-.64,0-1.28,0-1.91,0s-.67.2-.68.65q0,1.95-.06,3.9c0,.44.15.61.6.6,1.06,0,2.12,0,3.18,0,.88,0,1.26.37,1.29,1.24,0,.3,0,.59,0,.88,0,1.4-.16,1.65-1.54,1.65-1.88,0-3.77,0-5.65,0-1.19,0-1.21-.08-1.31-1.26C56.71,47.9,56.91,45.11,57,42.33Z"/><path class="cls-1" d="M3.48,45.6c0-3,0-6.09,0-9.13,0-.74-.2-1.1-1-1-.55,0-1.11,0-1.67,0s-.76-.27-.81-.76a1.93,1.93,0,0,1,0-.24c0-2.69,0-2.17,2.07-2.19,2.41,0,4.82,0,7.23,0,.67,0,.92.24.89.89-.14,2.72.42,2.3-2.31,2.33-1.16,0-1.19,0-1.19,1.21,0,4.79,0,9.59,0,14.39,0,1.17,0,1.22-1.19,1.22-2,0-2,0-2.07-2,0-.76,0-1.53,0-2.3V45.6Z"/><path class="cls-1" d="M67.83,70.85c-1.52.43-1.13-1.22-1.94-1.69,0,.47,0,.88,0,1.29s-.1.47-.45.47-.44-.19-.44-.49c0-1.41,0-2.81,0-4.22,0-.31.09-.51.45-.5.7,0,1.47-.15,1.92.62a1.52,1.52,0,0,1-.3,2.08c-.27.25-.14.46,0,.71A8.75,8.75,0,0,1,67.83,70.85Zm-2-3.53c.14.23-.22.7.29.73s.54-.35.55-.72-.13-.72-.55-.7S66,67.08,65.87,67.32Z"/><path class="cls-1" d="M59.49,68.13a4.65,4.65,0,0,1-.3,1.64,1.74,1.74,0,0,1-1.67,1.13,1.68,1.68,0,0,1-1.6-1.12,4,4,0,0,1-.11-2.73,1.86,1.86,0,0,1,1.78-1.33,1.91,1.91,0,0,1,1.74,1.4A7.2,7.2,0,0,1,59.49,68.13Zm-3,.11c0,1.17.39,1.83,1.09,1.81s1.09-.76,1-1.87-.48-1.72-1.06-1.72S56.51,67.19,56.5,68.24Z"/><path class="cls-1" d="M32.61,69.33c-.55.6-.25,2-1.7,1.5.29-.62.56-1.24.89-1.84a1.45,1.45,0,0,0,0-1.55,6.22,6.22,0,0,1-.52-1.07c-.07-.19-.4-.44-.06-.6a.64.64,0,0,1,.9.22c.16.32.29.65.5,1.1.21-.45.35-.77.51-1.1a.6.6,0,0,1,.83-.24c.42.15.1.47,0,.62-1,1.35-.72,2.63.11,3.91.11.17.39.45.08.59a.62.62,0,0,1-.89-.25A5,5,0,0,0,32.61,69.33Z"/><path class="cls-1" d="M23.1,68.35c0-.64,0-1.27,0-1.91,0-.49.12-.82.72-.74a5.1,5.1,0,0,0,.87,0c.35,0,.69-.06.68.49s-.35.43-.65.44-.63-.08-.68.42.17.65.64.61c.31,0,.64,0,.65.44s-.33.48-.65.45-.67.08-.65.6,0,.77.61.72c.4,0,.76,0,.72.57s-.44.44-.75.44c-1.72,0-1.5.13-1.51-1.47Z"/><path class="cls-1" d="M73.4,68.26c0-.66,0-1.33,0-2,0-.41.14-.58.56-.56s.79,0,1.19,0,.48.06.49.43-.13.5-.51.51-.65-.18-.74.21-.18.89.55.81c.28,0,.66-.11.67.41s-.35.52-.69.48-.59.15-.57.59,0,.8.58.74.81.06.7.64c0,0,0,.06,0,.08-.48.57-1.13.18-1.69.27-.33,0-.54-.13-.53-.52C73.41,69.64,73.4,69,73.4,68.26Z"/><path class="cls-1" d="M39.85,68.3c0-.61,0-1.23,0-1.83s.25-.8.83-.77a1.76,1.76,0,0,1,1.53,2.65c-.15.3-.38.6-.68.61-.86,0-.88.56-.82,1.18,0,.13,0,.26,0,.39,0,.31-.19.4-.47.39s-.36-.16-.36-.4V68.3Zm.8-.84c.16.28-.23.8.27.84s.58-.47.58-.87-.11-.85-.56-.81S40.81,67.18,40.65,67.46Z"/><path class="cls-1" d="M47.91,68.35c0-.72,0-1.43,0-2.15,0-.32.1-.48.45-.49s.51.14.5.52c0,1,0,2.11,0,3.17,0,.44.11.63.57.57s.7,0,.7.5-.44.41-.74.42c-1.45,0-1.45,0-1.45-1.43V68.35Z"/></svg>